<svg xmlns="http://www.w3.org/2000/svg" width="52" height="52" viewBox="0 0 52 52" fill="none"><circle cx="26" cy="26" r="25.5" fill="#F3F3F3" stroke="#373D3F"></circle><path d="M19.082 36C19.1185 34.5781 19.4238 33.2793 19.998 32.1035C20.554 30.7819 21.8665 29.3828 23.9355 27.9062C25.7311 26.6211 26.8932 25.7005 27.4219 25.1445C28.2331 24.2786 28.6387 23.3307 28.6387 22.3008C28.6387 21.4622 28.4062 20.765 27.9414 20.209C27.4766 19.653 26.8112 19.375 25.9453 19.375C24.7604 19.375 23.9538 19.8171 23.5254 20.7012C23.2793 21.2116 23.1335 22.0228 23.0879 23.1348H19.3008C19.3646 21.4486 19.6699 20.0859 20.2168 19.0469C21.2559 17.069 23.1016 16.0801 25.7539 16.0801C27.8503 16.0801 29.5182 16.6634 30.7578 17.8301C31.9974 18.9876 32.6172 20.5234 32.6172 22.4375C32.6172 23.9049 32.1797 25.2083 31.3047 26.3477C30.7305 27.1042 29.7871 27.9473 28.4746 28.877L26.916 29.9844C25.9408 30.6771 25.2708 31.1784 24.9062 31.4883C24.5508 31.7982 24.25 32.1582 24.0039 32.5684H32.6582V36H19.082Z" fill="#373D3F"></path></svg>