<svg xmlns="http://www.w3.org/2000/svg" width="52" height="52" viewBox="0 0 52 52" fill="none"><circle cx="26" cy="26" r="25.5" fill="#F3F3F3" stroke="#373D3F"></circle><path d="M22.7734 29.916C22.7734 30.709 22.901 31.3652 23.1562 31.8848C23.6302 32.8418 24.4915 33.3203 25.7402 33.3203C26.5059 33.3203 27.1712 33.0605 27.7363 32.541C28.3105 32.0124 28.5977 31.2559 28.5977 30.2715C28.5977 28.9681 28.069 28.0977 27.0117 27.6602C26.4102 27.4141 25.4622 27.291 24.168 27.291V24.502C25.4349 24.4837 26.319 24.3607 26.8203 24.1328C27.6862 23.75 28.1191 22.9753 28.1191 21.8086C28.1191 21.0521 27.8958 20.4368 27.4492 19.9629C27.0117 19.4889 26.3919 19.252 25.5898 19.252C24.6693 19.252 23.9902 19.5436 23.5527 20.127C23.1243 20.7103 22.9193 21.4896 22.9375 22.4648H19.3008C19.3372 21.4805 19.5059 20.5462 19.8066 19.6621C20.1257 18.8874 20.627 18.1719 21.3105 17.5156C21.821 17.0508 22.4271 16.6953 23.1289 16.4492C23.8307 16.2031 24.6921 16.0801 25.7129 16.0801C27.6087 16.0801 29.1354 16.5723 30.293 17.5566C31.4596 18.5319 32.043 19.8444 32.043 21.4941C32.043 22.6608 31.6966 23.6452 31.0039 24.4473C30.5664 24.9486 30.1107 25.2904 29.6367 25.4727C29.9922 25.4727 30.5026 25.778 31.168 26.3887C32.1615 27.3092 32.6582 28.5671 32.6582 30.1621C32.6582 31.8392 32.0749 33.3158 30.9082 34.5918C29.7507 35.8587 28.0326 36.4922 25.7539 36.4922C22.9466 36.4922 20.9961 35.5762 19.9023 33.7441C19.3281 32.7689 19.0091 31.4928 18.9453 29.916H22.7734Z" fill="#373D3F"></path></svg>