<svg xmlns="http://www.w3.org/2000/svg" xmlns:xlink="http://www.w3.org/1999/xlink" version="1.1" id="Layer_1" x="0px" y="0px" viewBox="0 0 600 600" style="enable-background:new 0 0 600 600;" xml:space="preserve"> <style type="text/css"> .st0{fill:#00A147;} </style> <g transform="translate(0.000000,650.000000) scale(0.100000,-0.100000)"> <g> <path class="st0" d="M2708.5,5198.2c-137-18-353-76-488-131c-630-257-1093-804-1240-1466c-36-162-46-260-46-448 c0-240,31-435,101-645c60-179,42-165,211-158c79,3,145,7,147,9s-6,39-18,82c-60,223-85,448-78,709c9,372,82,678,240,1003 c218,451,614,807,1037,933c350,105,689,80,1030-76c495-226,892-769,1029-1407c39-179,46-259,46-515c0-286-11-388-65-603 c-17-64-30-120-30-125c0-4,69-6,152-5l153,3l36,95c37,100,70,220,96,354c20,108,29,474,14,592c-67,510-282,926-662,1279 c-302,281-695,465-1107,520C3129.5,5216.2,2850.5,5216.2,2708.5,5198.2z"></path> <path class="st0" d="M2884.5,4902.2c-58-26-115-81-148-144c-23-42-27-62-26-130c0-66,5-89,26-130c31-59,76-104,138-136 c59-31,195-34,250-5c66,35,110,79,140,139c25,51,30,72,30,137c0,121-52,205-164,264C3066.5,4931.2,2953.5,4933.2,2884.5,4902.2z"></path> <path class="st0" d="M3603.5,4822.2c-53-8-98-29-152-72c-89-69-124-231-75-338c71-154,250-223,395-152c191,94,232,333,82,483 C3790.5,4805.2,3695.5,4836.2,3603.5,4822.2z"></path> <path class="st0" d="M2542.5,4337.2c-57-18-141-91-170-147c-13-26-22-68-25-119c-5-73-4-82,26-143c75-152,244-213,394-141 c64,31,122,92,149,159c22,53,23,150,2,210c-20,60-88,136-149,166C2709.5,4352.2,2609.5,4359.2,2542.5,4337.2z"></path> <path class="st0" d="M3139.5,4296.2c-106-55-154-167-120-277c15-48,16-58,4-74c-206-280-331-557-374-827c-21-130-44-425-47-605 l-3-155h82h82l5,210c12,517,132,962,332,1231l55,75l47-7c94-12,188,39,233,127c38,76,17,202-42,255 C3324.5,4311.2,3208.5,4333.2,3139.5,4296.2z"></path> <path class="st0" d="M3737.5,4187.2c-59-21-127-85-158-149c-24-49-27-63-24-143c4-83,6-92,42-146c63-95,157-142,272-134 c249,16,363,317,189,502C3985.5,4195.2,3846.5,4225.2,3737.5,4187.2z"></path> <path class="st0" d="M3278.5,3789.2c-130-32-224-152-224-287c0-77,25-142,78-197c115-124,291-134,412-25c128,115,136,294,19,427 C3501.5,3779.2,3378.5,3814.2,3278.5,3789.2z"></path> <path class="st0" d="M1472.5,3561.2c-27-6-48-16-48-22c0-28,126-201,200-275c182-181,407-271,682-271c95,0,222,14,237,26 c2,2-25,41-58,88c-181,250-380,391-639,451C1774.5,3575.2,1547.5,3577.2,1472.5,3561.2z"></path> <path class="st0" d="M3714.5,2979.2c-207-32-353-76-511-156c-148-75-321-198-297-211c13-6,101-26,233-51c107-20,477-17,585,5 c272,55,451,130,646,269c113,81,115,84,62,99C4245.5,2984.2,3893.5,3007.2,3714.5,2979.2z"></path> <path class="st0" d="M1489.5,2197.2c-74-38-115-101-115-177c0-101,38-151,156-208c55-27,85-47,92-65c27-57,4-94-59-94 c-39,0-49,7-88,60l-19,24l-51-23c-28-14-51-30-51-36s14-32,31-58c56-85,166-119,254-78c82,37,125,105,125,195 c0,103-29,142-150,201c-93,46-110,61-110,96c0,63,85,76,118,19c9-17,21-30,25-30s30,11,57,25c50,25,50,26,36,53 C1693.5,2191.2,1569.5,2239.2,1489.5,2197.2z"></path> <path class="st0" d="M1965.5,2202.2c-113-45-169-200-149-411c15-152,84-250,189-264c95-13,170,32,216,131c24,53,28,74,31,181 c6,195-32,301-127,351C2078.5,2214.2,2009.5,2220.2,1965.5,2202.2z M2090.5,2057.2c20-48,20-331,0-379c-13-30-20-35-49-35 c-64,0-72,20-75,204c-4,184,6,236,48,246C2054.5,2103.2,2075.5,2093.2,2090.5,2057.2z"></path> <path class="st0" d="M3619.5,2203.2c-43-13-94-68-118-125c-26-64-35-257-18-356c15-80,56-151,103-175c45-23,127-22,170,3 c72,42,118,165,118,320c0,211-61,325-180,338C3669.5,2210.2,3635.5,2208.2,3619.5,2203.2z M3715.5,2081.2c13-25,19-366,6-410 c-10-39-51-48-80-19c-21,21-22,30-22,214c0,214,5,237,55,237C3694.5,2103.2,3707.5,2096.2,3715.5,2081.2z"></path> <path class="st0" d="M4077.5,2200.2c-97-36-143-142-143-331c0-212,50-315,164-337c100-19,180,41,217,161c18,60,20,88,17,198 c-6,152-24,219-74,267C4206.5,2209.2,4141.5,2223.2,4077.5,2200.2z M4182.5,2058.2c19-55,13-385-7-409c-17-20-55-21-74-1 c-21,21-30,124-25,278s14,180,61,175C4164.5,2098.2,4171.5,2092.2,4182.5,2058.2z"></path> <path class="st0" d="M1149.5,2190.2c-3-7-4-156-3-332l3-320l68-3l67-3v336v335h-65C1175.5,2203.2,1152.5,2199.2,1149.5,2190.2z"></path> <path class="st0" d="M2729.5,2179.2c-16-13-48-30-70-38c-39-15-40-17-43-68l-3-52l33,7c18,4,38,8,43,9c6,0,11-72,13-196l2-198h-45 h-45v-55v-55h155h155v55v55h-45h-45l-2,278l-3,277l-35,2C2770.5,2202.2,2750.5,2195.2,2729.5,2179.2z"></path> <path class="st0" d="M3211.5,2196.2c-3-5-44-84-92-178c-49-93-94-179-102-190c-7-11-13-43-13-72v-53h105h105v-85v-86l68,3l67,3 l1,80v80l37,3l37,3v50v49h-35c-21,0-35,5-35,13c-1,6,0,89,0,183s-2,178-6,187c-5,13-19,17-69,17 C3244.5,2203.2,3213.5,2200.2,3211.5,2196.2z M3218.5,1909.2l1-106h-57c-32,0-58,2-58,5c0,11,104,214,108,211 C3214.5,2016.2,3217.5,1967.2,3218.5,1909.2z"></path> <path class="st0" d="M4580.5,2182.2c-15-12-48-29-74-39c-47-18-47-18-50-69c-3-56-1-58,56-42l32,10v-199v-199l-42-3l-43-3v-50v-50 l153-3l152-3v56v55h-45h-45v280v280h-34C4621.5,2203.2,4595.5,2194.2,4580.5,2182.2z"></path> <path class="st0" d="M1958.5,1374.2c9-15,225-117,326-154c513-190,1098-162,1595,78c193,93,286,84-888,85 C2392.5,1383.2,1955.5,1379.2,1958.5,1374.2z"></path> <g> <path class="st0" d="M570.9,2648.2l-34.3,188.2l45.9,8.4l25-137.1l72,13.1l-22.1,121.5l46.4,8.5l22.1-121.5l76.1,13.9l-25,137.1 l46.4,8.5l34.3-188.2L570.9,2648.2z"></path> <path class="st0" d="M521.8,2979.6l207.9,153l-215.9-12.2l-3,52.4l291,16.5l3.6-63L597,2973.8l216.4,12.3l2.9-51.9l-291-16.5 L521.8,2979.6z"></path> <path class="st0" d="M515.2,3298.4l241.1,63.7l-229.9,90.7l4.1,55.5l283.4-121.7l-4.5-61.8l-298.5-85L515.2,3298.4z"></path> <path class="st0" d="M550.1,3615.9l287.8-46.4l-8.3-51.3l-287.8,46.4L550.1,3615.9z"></path> <path class="st0" d="M587.1,3792c19.4,77.5,56.8,109.3,112.3,95.4c40.1-10,62-37.7,65.6-83l136,41.4l-14.3-57.1l-126.2-37.3 c-0.9-5.2-2.6-12.6-5-22.2c-1.2-4.8-3.4-12.3-6.7-22.4l110.6-27.6l-12.6-50.4L564,3699.5L587.1,3792z M703.1,3718.3 c3.2,8.3,5.7,16.4,7.7,24.3c6.5,26,8.8,47.1,6.7,63.1c-2,16-11.9,26.2-29.8,30.7c-15.4,3.9-27.4,0.2-35.8-11 c-8.4-11.2-15.4-27.8-20.9-49.7l-9.2-37L703.1,3718.3z"></path> <path class="st0" d="M685.2,4111.1c9.9,25,24.4,45.4,43.5,61.2c19.2,15.8,41.4,25.5,66.8,29.2c25.4,3.6,51.7,0.1,79-10.7 c27.3-10.8,49.4-26.3,66.3-46.4c16.9-20.2,27.3-42.9,31.2-68.2c3.9-25.3,0.8-50.7-9.4-76.4c-9.1-23-23-42.5-41.6-58.5 c-18.7-16-41-26.1-66.9-30.2c-26-4.2-53.6-0.5-82.8,11.1c-27.3,10.8-49.1,26.2-65.4,46.4c-16.4,20.1-26.3,42.7-30,67.7 C672.2,4061.1,675.4,4086.1,685.2,4111.1z M729.3,4091.4c-5.7-14.5-7.8-29.2-6.4-44.2c1.5-15,7.5-29.2,18-42.4 c10.5-13.3,26.1-24,46.8-32.2c19.4-7.7,37.9-10.6,55.5-8.8c17.6,1.8,33,7.7,46,17.7c13.1,10,22.8,23.1,29.2,39.2 c5.6,14.1,7.6,28.8,6,44.1c-1.6,15.2-7.9,29.6-18.9,43.1c-11,13.5-27,24.4-48.1,32.7c-21.4,8.4-40.8,11.2-58.3,8.2 c-17.5-3-32.1-9.7-43.9-20.3C743.6,4117.8,734.9,4105.5,729.3,4091.4z"></path> <path class="st0" d="M810.1,4373.3l257.7,15.1l-187.8,107.3l26,45.6l253.1-144.6l-31.3-54.8L870,4327.4l188.2-107.5l-25.8-45.1 l-253.1,144.6L810.1,4373.3z"></path> <path class="st0" d="M1002.9,4678.1l174.2-36.8l-75.4,162l40.7,51.6l228.9-180.5l-31.8-40.4l-172.7,136.2l68.4-147.8l-27.6-35 l-159.3,32.5l172.7-136.2l-32.2-40.8l-228.9,180.5L1002.9,4678.1z"></path> <path class="st0" d="M1208.4,4922.6l137.2,133.4l32.5-33.4l-99.9-97.2l51-52.4l88.5,86.1l32.9-33.8l-88.5-86.1l53.9-55.5 l100,97.2l32.9-33.8l-137.2-133.4L1208.4,4922.6z"></path> <path class="st0" d="M1456.6,5148.4l242.9-87.4L1569,5233.4l41.8,31.7l175.9-232.5l-50.3-38.1l-242.8,88.1l130.8-172.9 l-41.4-31.3L1407.1,5111L1456.6,5148.4z"></path> <path class="st0" d="M1875.3,5421.7l23.3-40.4l-82.7-47.6l122.3-212.2l-45-25.9l-122.3,212.2l-82.7-47.6l-23.3,40.4 L1875.3,5421.7z"></path> <path class="st0" d="M2054.6,5501.9l215.8-224.5l-48.2-20.7l-57.6,58.9l-98.9-42.5l3.5-82.1l-46.7-20.1l-14.2,311.1 L2054.6,5501.9z M2053.4,5437.4l9-115l68.2,29.3L2053.4,5437.4z"></path> <path class="st0" d="M2266.4,5579.4l70.3-234l133,40l13.6-45.2l-182.7-54.9l-83.9,279.2L2266.4,5579.4z"></path> <path class="st0" d="M2662.6,5670.4l96.1-149.8l62.4,167.5l65.3,7.3l32.2-289.7l-51.1-5.7l-24.3,218.6l-57.2-152.5l-44.2-4.9 l-88.7,136.2l24.3-218.6l-51.6-5.7l-32.2,289.7L2662.6,5670.4z"></path> <path class="st0" d="M3116.2,5692.7l101.5-294.5l-52.5,1.5l-27.5,77.7l-107.5,3l-31.3-76l-50.9,1.4l117.9,288.3L3116.2,5692.7z M3088.1,5634.7l-40.2-108.1l74.2-2.1L3088.1,5634.7z"></path> <path class="st0" d="M3354.7,5673l104.9-235.9l34.3,213.5l51.8-8.3l-46.2-287.8l-62.3,10L3333,5600.8l-34.4-214l-51.3,8.2 l46.2,287.8L3354.7,5673z"></path> <path class="st0" d="M3766,5581.4l21.1-310.7l-50.2,15.1l-6.3,82.1l-103,31l-50-65.2l-48.7,14.6l189,247.6L3766,5581.4z M3723.7,5532.7l-67-93.9l71.1-21.4L3723.7,5532.7z"></path> <path class="st0" d="M4054.5,5185c-32.6-9.8-70.5-5.6-113.5,12.5c-30.3,13.6-52.9,31.8-67.9,54.5c-15,22.8-22.9,46.9-23.8,72.5 c-0.9,25.6,3.7,49.8,14,72.7c10.7,23.9,26.1,43.6,46.4,59.4c20.2,15.7,43.7,25.1,70.4,28.2s54.5-1.8,83.2-14.6 c31.6-14.2,57.6-35.3,77.9-63.4l5-6.9l-36.1-27.4l-5.5,5.9c-6.9,8.9-15.4,17.7-25.7,26.3c-10.3,8.7-21.5,15.7-33.8,21.2 c-16.1,7.2-32.9,10.4-50.3,9.5c-17.4-0.9-33.6-6.2-48.4-16c-14.8-9.8-26.3-23.7-34.4-41.8c-8.1-18.1-11.1-36.3-9.1-54.6 c2-18.3,8.7-35,20-49.9s26.5-26.7,45.5-35.2c10.3-4.6,19.1-7.6,26.5-9c7.3-1.3,15-1.7,23.1-1l25.4,56.6l-69.6,31.2l18.9,42.1 l116.1-52L4054.5,5185z"></path> <path class="st0" d="M4233.6,5382.9l163.9-98.8l-24.1-40l-119.4,71.9l-37.7-62.6l105.8-63.7l-24.3-40.4l-105.8,63.7l-39.9-66.3 l119.4-71.9l-24.3-40.4l-163.9,98.8L4233.6,5382.9z"></path> <path class="st0" d="M4522.6,5195.1l-38-173.9l162.6,74.3l51.3-41l-182.1-227.6l-40.1,32.1l137.4,171.8l-148.2-67.4l-34.8,27.8 l33.6,159.1l-137.4-171.8l-40.6,32.4l182.1,227.6L4522.6,5195.1z"></path> <path class="st0" d="M4765.7,4987.9l132.4-138.1l-33.7-32.3l-96.5,100.6l-52.8-50.6l85.5-89.1l-34-32.6l-85.5,89.1l-55.8-53.6 l96.5-100.6l-34.1-32.6l-132.4,138.1L4765.7,4987.9z"></path> <path class="st0" d="M4989.8,4738.2l-89.1-242.3l173.3,129.3l31.4-42.1l-233.7-174.3l-37.7,50.6l89.8,242.2L4750.1,4572 l-31.1,41.6l233.7,174.3L4989.8,4738.2z"></path> <path class="st0" d="M5260.1,4317.8l-40.6-23l-47.1,83l-213-120.8l-25.6,45.2l213,120.8l-47.1,83l40.6,23L5260.1,4317.8z"></path> <path class="st0" d="M5332.9,4025.6c-6.2,16.9-14.1,29.1-23.6,36.5c-9.5,7.4-19.4,9.3-29.7,5.5c-8.6-3.2-13.8-10.1-15.6-20.7 c-1.8-10.6-2.1-26.5-1.2-47.6c1.1-21.4,1.1-39.4,0-53.9c-1.1-14.5-5.4-28.2-13.1-41.2s-20-22.6-36.9-28.8 c-13.9-5.1-28.3-6.1-43.3-2.9c-14.9,3.2-29.4,11.9-43.5,26.1c-14.1,14.2-26,34.6-35.7,61.1c-5.7,15.6-9.4,30.4-11,44.5 s-2.2,31-1.9,50.7l0.6,7.6l50.3-0.2l-0.3-8.6c-0.2-34.3,3.3-61.3,10.5-80.8c6.6-17.9,14.9-31.2,25.1-39.9 c10.2-8.7,20.4-11.2,30.7-7.4c10.1,3.3,16,10.4,17.9,21.2c1.8,10.8,2.1,27.3,0.8,49.4c-1,21.1-0.9,38.8,0.3,53.2 c1.1,14.3,5.5,27.8,13.1,40.4c7.6,12.6,19.9,22,36.8,28.2c14.9,5.5,29.7,6.2,44.4,2.2c14.6-4,28.2-12.6,40.5-25.8 c12.4-13.1,22.3-30,29.9-50.6c6.5-17.6,10.5-33,12.2-46.3c1.7-13.3,2.7-26.5,2.9-39.6l0-6.2l-50.1-0.3 c0.3,14.4-0.2,27.5-1.7,39.2C5340,4002.4,5337.1,4014,5332.9,4025.6z"></path> <path class="st0" d="M5439.4,3844.6l-92.7-97.9l127.1-45.9l13.5-56.7l-180.5,69.1l-128.3-30.7l-12.1,50.5l128.3,30.7l131.3,137.1 L5439.4,3844.6z"></path> <path class="st0" d="M5463.1,3469.6c-2.1,17.9-6.9,31.6-14.5,41c-7.5,9.4-16.7,13.5-27.6,12.2c-9.1-1.1-15.8-6.6-19.9-16.5 c-4.2-9.9-8.2-25.3-12.2-46c-3.9-21.1-8.1-38.6-12.5-52.4c-4.4-13.9-11.8-26.2-22.3-37.1c-10.4-10.8-24.6-17.3-42.5-19.4 c-14.7-1.7-29,0.7-42.8,7.2c-13.8,6.6-25.8,18.4-36.2,35.5c-10.4,17.1-17.2,39.7-20.6,67.7c-2,16.5-2.1,31.8-0.4,45.9 c1.7,14.1,5,30.7,9.9,49.7l2.4,7.2l48.9-11.8l-2.2-8.3c-8.2-33.3-11-60.4-8.5-81.1c2.2-19,7.3-33.8,15.2-44.6 s17.2-15.6,28.1-14.3c10.6,0.9,18,6.4,22.3,16.5s8.4,26.1,12.2,47.9c4,20.7,8.1,38,12.6,51.7c4.4,13.7,11.8,25.8,22.1,36.2 c10.3,10.5,24.4,16.8,42.3,18.9c15.8,1.9,30.3-0.9,43.7-8.2c13.3-7.3,24.5-18.8,33.4-34.5c9-15.7,14.7-34.4,17.3-56.1 c2.2-18.6,2.6-34.6,1.1-47.9c-1.5-13.3-3.5-26.4-6.3-39.2l-1.4-6l-48.8,11.3c3.7,14,6.2,26.8,7.5,38.5 C5464.6,3445.3,5464.5,3457.3,5463.1,3469.6z"></path> <path class="st0" d="M5526.9,3087.5l-46.6-0.8l-1.5,95.4l-244.8-4l-0.8,51.9l244.8,4l-1.6,95.4l46.6,0.8L5526.9,3087.5z"></path> <path class="st0" d="M5521.2,3023.3l-19.3-190.4l-46.4,4.7l14.1,138.7l-72.8,7.4l-12.5-122.9l-46.9,4.8l12.5,122.9l-77,7.8 l-14.1-138.7l-46.9,4.8l19.3,190.4L5521.2,3023.3z"></path> <path class="st0" d="M5474.8,2681.6l-173.5-39.8l136.5-115.4l-15.2-63.9l-283.5,67.6l11.9,50l213.9-51l-124.2,105.4l10.3,43.3 l158.2,37.5l-214,51l12.1,50.5l283.5-67.6L5474.8,2681.6z"></path> </g> </g> </g> </svg>